<?xml version="1.0" encoding="UTF-8" standalone="no"?>
<!-- Created with Inkscape (http://www.inkscape.org/) -->

<svg
   xmlns:dc="http://purl.org/dc/elements/1.1/"
   xmlns:cc="http://creativecommons.org/ns#"
   xmlns:rdf="http://www.w3.org/1999/02/22-rdf-syntax-ns#"
   xmlns:svg="http://www.w3.org/2000/svg"
   xmlns="http://www.w3.org/2000/svg"
   xmlns:sodipodi="http://sodipodi.sourceforge.net/DTD/sodipodi-0.dtd"
   xmlns:inkscape="http://www.inkscape.org/namespaces/inkscape"
   width="216.37502"
   height="216.37502"
   id="svg2"
   version="1.1"
   inkscape:version="0.48.4 r9939"
   sodipodi:docname="config_simulation.svg">
  <defs
     id="defs4" />
  <sodipodi:namedview
     id="base"
     pagecolor="#ffffff"
     bordercolor="#666666"
     borderopacity="1.0"
     inkscape:pageopacity="0.0"
     inkscape:pageshadow="2"
     inkscape:zoom="0.7"
     inkscape:cx="198.18751"
     inkscape:cy="137.46372"
     inkscape:document-units="px"
     inkscape:current-layer="layer1"
     showgrid="false"
     fit-margin-top="0"
     fit-margin-left="0"
     fit-margin-right="0"
     fit-margin-bottom="0"
     inkscape:window-width="867"
     inkscape:window-height="578"
     inkscape:window-x="493"
     inkscape:window-y="124"
     inkscape:window-maximized="0" />
  <metadata
     id="metadata7">
    <rdf:RDF>
      <cc:Work
         rdf:about="">
        <dc:format>image/svg+xml</dc:format>
        <dc:type
           rdf:resource="http://purl.org/dc/dcmitype/StillImage" />
        <dc:title></dc:title>
      </cc:Work>
    </rdf:RDF>
  </metadata>
  <g
     inkscape:label="Layer 1"
     inkscape:groupmode="layer"
     id="layer1"
     transform="translate(-176.81249,-230.59374)">
    <path
       style="opacity:0.67420002;fill:#559bff;fill-opacity:1;stroke:#000000;stroke-width:1.60000002;stroke-linecap:round;stroke-linejoin:round;stroke-miterlimit:4;stroke-opacity:1;stroke-dasharray:none;stroke-dashoffset:0"
       d="m 302.76338,245.38392 c -3.46298,5.51393 -7.62589,12.1802 -10.96875,17.5 -1.88515,-0.13166 -3.76887,-0.21875 -5.6875,-0.21875 -2.20794,0 -4.39933,0.10733 -6.5625,0.28125 -3.53588,-5.28769 -7.93661,-11.88992 -11.5625,-17.3125 -2.83734,0.53869 -5.63142,1.1877 -8.375,1.96875 -0.72479,6.35362 -1.57501,14.06808 -2.28125,20.34375 -4.04595,1.54316 -7.92133,3.41738 -11.625,5.5625 -5.43165,-3.20293 -12.01731,-7.13459 -17.46875,-10.34375 -2.28703,1.71289 -4.47001,3.53287 -6.59375,5.4375 2.02432,5.78848 4.4797,12.73774 6.53125,18.59375 -3.23426,3.33325 -6.18775,6.93097 -8.8125,10.78125 -6.08968,-0.51439 -13.20063,-1.12439 -19.15625,-1.625 -1.30053,2.52279 -2.51504,5.10395 -3.59375,7.75 4.07218,4.07806 8.8917,8.8659 13.125,13.09375 -1.62385,4.73492 -2.84058,9.66376 -3.5625,14.75 -5.41393,2.06425 -11.42892,4.36185 -16.625,6.34375 -0.017,0.74608 -0.0312,1.49983 -0.0312,2.25 0,2.17341 0.0774,4.3311 0.21875,6.46875 5.0587,1.7745 10.83183,3.79832 16.15625,5.65625 0.62859,5.49946 1.85435,10.83072 3.53125,15.9375 -3.74413,3.95581 -7.73215,8.14863 -11.28125,11.90625 1.24799,2.74219 2.60405,5.40225 4.09375,8 4.97258,-0.56284 10.48149,-1.18226 15.75,-1.78125 3.09963,4.8627 6.71195,9.35739 10.75,13.4375 -1.55088,4.85444 -3.15715,9.83412 -4.625,14.4375 2.38515,1.9987 4.86465,3.89194 7.4375,5.65625 4.01459,-2.52356 8.32362,-5.2364 12.5625,-7.90625 4.99019,3.04532 10.34297,5.55347 15.96875,7.46875 0.67878,4.83313 1.38232,9.70832 2.03125,14.3125 3.08768,0.789 6.23885,1.4229 9.4375,1.90625 2.47081,-3.93582 5.07425,-8.09968 7.65625,-12.21875 2.2758,0.19276 4.58058,0.3125 6.90625,0.3125 3.58076,0 7.10499,-0.23559 10.5625,-0.6875 2.67303,4.0064 5.36429,8.05287 7.9375,11.90625 3.26058,-0.63257 6.45918,-1.42335 9.59375,-2.375 0.53353,-4.70077 1.114,-9.67481 1.65625,-14.53125 5.25147,-2.08467 10.23212,-4.69358 14.875,-7.78125 4.24764,2.5089 8.63293,5.1168 12.78125,7.5625 2.68496,-1.98782 5.25732,-4.12557 7.71875,-6.375 -1.65173,-4.70753 -3.41866,-9.75711 -5.09375,-14.53125 3.51258,-3.90763 6.63984,-8.14744 9.34375,-12.6875 5.16922,0.43804 10.71533,0.90817 15.84375,1.34375 1.5528,-2.90657 2.99537,-5.89434 4.25,-8.96875 -3.79573,-3.79689 -7.96658,-7.97134 -11.75,-11.75 1.29656,-4.61916 2.20086,-9.39803 2.65625,-14.3125 5.1411,-1.96159 10.92465,-4.16744 16.125,-6.15625 0.061,-1.40927 0.0937,-2.82571 0.0937,-4.25 0,-1.85683 -0.0529,-3.7003 -0.15625,-5.53125 -5.46655,-1.9074 -11.64054,-4.04398 -16.96875,-5.90625 -0.79486,-4.44987 -1.97669,-8.77227 -3.46875,-12.9375 3.99618,-4.22787 8.72844,-9.207 12.84375,-13.5625 -1.25388,-2.9323 -2.6603,-5.78798 -4.1875,-8.5625 -6.1471,0.69178 -13.2649,1.52308 -19.15625,2.1875 -2.4435,-3.38699 -5.16627,-6.56683 -8.09375,-9.53125 1.84559,-5.79742 4.13928,-12.92221 6.0625,-18.96875 -2.30079,-2.00777 -4.70241,-3.90212 -7.1875,-5.6875 -5.45478,3.43176 -11.91084,7.50528 -17.125,10.78125 -3.51825,-1.95679 -7.18371,-3.67274 -11,-5.09375 -0.87912,-6.20825 -1.96155,-13.98398 -2.875,-20.4375 -2.82656,-0.76491 -5.70192,-1.39786 -8.625,-1.90625 z m -15.25,57.0625 c 21.82925,0 39.53125,17.702 39.53125,39.53125 0,21.82925 -17.702,39.53125 -39.53125,39.53125 -21.82925,0 -39.5,-17.702 -39.5,-39.53125 0,-21.82925 17.67075,-39.53125 39.5,-39.53125 z"
       id="path3004"
       inkscape:connector-curvature="0" />
    <path
       style="opacity:0.67420002;fill:#559bff;fill-opacity:1;stroke:none"
       d="m 365.38838,312.70088 c -14.45756,0.0826 -30.3495,1.52213 -47.21875,4.34375 5.53846,6.80321 8.875,15.48294 8.875,24.9375 0,21.82925 -17.702,39.53125 -39.53125,39.53125 -21.82925,0 -39.5,-17.702 -39.5,-39.53125 0,-2.25484 0.20031,-4.47319 0.5625,-6.625 -15.22659,5.4973 -29.53269,11.73694 -42.5625,18.40625 0.66023,5.11418 1.84042,10.07521 3.40625,14.84375 -3.74413,3.95581 -7.73215,8.14863 -11.28125,11.90625 1.24799,2.74219 2.60405,5.40225 4.09375,8 4.97258,-0.56284 10.48149,-1.18226 15.75,-1.78125 3.09963,4.8627 6.71195,9.35739 10.75,13.4375 -1.55088,4.85444 -3.15715,9.83412 -4.625,14.4375 2.38515,1.9987 4.86465,3.89194 7.4375,5.65625 4.01459,-2.52356 8.32362,-5.2364 12.5625,-7.90625 4.99019,3.04532 10.34297,5.55347 15.96875,7.46875 0.67878,4.83313 1.38232,9.70832 2.03125,14.3125 3.08768,0.789 6.23885,1.4229 9.4375,1.90625 2.47081,-3.93582 5.07425,-8.09968 7.65625,-12.21875 2.2758,0.19276 4.58058,0.3125 6.90625,0.3125 3.58076,0 7.10499,-0.23559 10.5625,-0.6875 2.67303,4.0064 5.36429,8.05287 7.9375,11.90625 3.26058,-0.63257 6.45918,-1.42335 9.59375,-2.375 0.53353,-4.70077 1.114,-9.67481 1.65625,-14.53125 5.25147,-2.08467 10.23212,-4.69358 14.875,-7.78125 4.24764,2.5089 8.63293,5.1168 12.78125,7.5625 2.68496,-1.98782 5.25732,-4.12557 7.71875,-6.375 -1.65173,-4.70753 -3.41866,-9.75711 -5.09375,-14.53125 3.51258,-3.90763 6.63984,-8.14744 9.34375,-12.6875 5.16922,0.43804 10.71533,0.90817 15.84375,1.34375 1.5528,-2.90657 2.99537,-5.89434 4.25,-8.96875 -3.79573,-3.79689 -7.96658,-7.97134 -11.75,-11.75 1.29656,-4.61916 2.20086,-9.39803 2.65625,-14.3125 5.1411,-1.96159 10.92465,-4.16744 16.125,-6.15625 0.061,-1.40927 0.0937,-2.82571 0.0937,-4.25 0,-1.85683 -0.0529,-3.7003 -0.15625,-5.53125 -5.46655,-1.9074 -11.64054,-4.04398 -16.96875,-5.90625 -0.79486,-4.44987 -1.97669,-8.77227 -3.46875,-12.9375 1.02152,-1.08075 2.18613,-2.31278 3.28125,-3.46875 z"
       id="path3783"
       inkscape:connector-curvature="0" />
  </g>
</svg>
